<mxfile host="app.diagrams.net" modified="2021-03-12T07:11:51.872Z" agent="5.0 (Windows NT 10.0; Win64; x64) AppleWebKit/537.36 (KHTML, like Gecko) Chrome/88.0.4324.182 Safari/537.36" etag="8Zy2hZOQ77zN31eT-jBG" version="14.4.4" type="github">
  <diagram id="IdtsszkcSssH0BpiDQeI" name="第 1 页">
    <mxGraphModel dx="1038" dy="580" grid="0" gridSize="10" guides="1" tooltips="1" connect="1" arrows="1" fold="1" page="0" pageScale="1" pageWidth="827" pageHeight="1169" math="0" shadow="0">
      <root>
        <mxCell id="0" />
        <mxCell id="1" parent="0" />
        <mxCell id="yr-j9xLNzogEaVnCt1b7-3" style="rounded=0;orthogonalLoop=1;jettySize=auto;html=1;exitX=1;exitY=0.5;exitDx=0;exitDy=0;" edge="1" parent="1" source="yr-j9xLNzogEaVnCt1b7-1" target="yr-j9xLNzogEaVnCt1b7-2">
          <mxGeometry relative="1" as="geometry" />
        </mxCell>
        <mxCell id="yr-j9xLNzogEaVnCt1b7-7" style="edgeStyle=none;rounded=0;orthogonalLoop=1;jettySize=auto;html=1;entryX=0;entryY=0.5;entryDx=0;entryDy=0;exitX=1;exitY=0.5;exitDx=0;exitDy=0;" edge="1" parent="1" source="yr-j9xLNzogEaVnCt1b7-1" target="yr-j9xLNzogEaVnCt1b7-4">
          <mxGeometry relative="1" as="geometry" />
        </mxCell>
        <mxCell id="yr-j9xLNzogEaVnCt1b7-8" style="edgeStyle=none;rounded=0;orthogonalLoop=1;jettySize=auto;html=1;entryX=0;entryY=0.5;entryDx=0;entryDy=0;exitX=1;exitY=0.5;exitDx=0;exitDy=0;" edge="1" parent="1" source="yr-j9xLNzogEaVnCt1b7-1" target="yr-j9xLNzogEaVnCt1b7-5">
          <mxGeometry relative="1" as="geometry" />
        </mxCell>
        <mxCell id="yr-j9xLNzogEaVnCt1b7-9" style="edgeStyle=none;rounded=0;orthogonalLoop=1;jettySize=auto;html=1;exitX=1;exitY=0.5;exitDx=0;exitDy=0;entryX=0;entryY=0.5;entryDx=0;entryDy=0;" edge="1" parent="1" source="yr-j9xLNzogEaVnCt1b7-1" target="yr-j9xLNzogEaVnCt1b7-6">
          <mxGeometry relative="1" as="geometry" />
        </mxCell>
        <mxCell id="yr-j9xLNzogEaVnCt1b7-1" value="comment" style="rounded=1;whiteSpace=wrap;html=1;" vertex="1" parent="1">
          <mxGeometry x="54" y="175" width="120" height="60" as="geometry" />
        </mxCell>
        <mxCell id="yr-j9xLNzogEaVnCt1b7-2" value="comment_reply" style="rounded=1;whiteSpace=wrap;html=1;" vertex="1" parent="1">
          <mxGeometry x="264" y="82" width="120" height="60" as="geometry" />
        </mxCell>
        <mxCell id="yr-j9xLNzogEaVnCt1b7-4" value="comment_reply" style="rounded=1;whiteSpace=wrap;html=1;" vertex="1" parent="1">
          <mxGeometry x="302" y="201" width="120" height="60" as="geometry" />
        </mxCell>
        <mxCell id="yr-j9xLNzogEaVnCt1b7-5" value="comment_reply" style="rounded=1;whiteSpace=wrap;html=1;" vertex="1" parent="1">
          <mxGeometry x="295" y="320" width="120" height="60" as="geometry" />
        </mxCell>
        <mxCell id="yr-j9xLNzogEaVnCt1b7-6" value="comment_reply" style="rounded=1;whiteSpace=wrap;html=1;" vertex="1" parent="1">
          <mxGeometry x="252" y="424" width="120" height="60" as="geometry" />
        </mxCell>
      </root>
    </mxGraphModel>
  </diagram>
</mxfile>
